<?xml version="1.0" encoding="UTF-8"?>
<!DOCTYPE svg PUBLIC "-//W3C//DTD SVG 1.1//EN" "http://www.w3.org/Graphics/SVG/1.1/DTD/svg11.dtd">
<svg version="1.2" width="127mm" height="135.47mm" viewBox="0 0 12700 13547" preserveAspectRatio="xMidYMid" fill-rule="evenodd" stroke-width="28.222" stroke-linejoin="round" xmlns="http://www.w3.org/2000/svg" xmlns:ooo="http://xml.openoffice.org/svg/export" xmlns:xlink="http://www.w3.org/1999/xlink" xmlns:presentation="http://sun.com/xmlns/staroffice/presentation" xmlns:smil="http://www.w3.org/2001/SMIL20/" xmlns:anim="urn:oasis:names:tc:opendocument:xmlns:animation:1.0" xml:space="preserve">
 <defs class="ClipPathGroup">
  <clipPath id="presentation_clip_path" clipPathUnits="userSpaceOnUse">
   <rect x="0" y="0" width="12700" height="13547"/>
  </clipPath>
  <clipPath id="presentation_clip_path_shrink" clipPathUnits="userSpaceOnUse">
   <rect x="12" y="13" width="12675" height="13520"/>
  </clipPath>
 </defs>
 <defs class="TextShapeIndex">
  <g ooo:slide="id1" ooo:id-list="id3"/>
 </defs>
 <defs class="EmbeddedBulletChars">
  <g id="bullet-char-template-57356" transform="scale(0.00048828125,-0.00048828125)">
   <path d="M 580,1141 L 1163,571 580,0 -4,571 580,1141 Z"/>
  </g>
  <g id="bullet-char-template-57354" transform="scale(0.00048828125,-0.00048828125)">
   <path d="M 8,1128 L 1137,1128 1137,0 8,0 8,1128 Z"/>
  </g>
  <g id="bullet-char-template-10146" transform="scale(0.00048828125,-0.00048828125)">
   <path d="M 174,0 L 602,739 174,1481 1456,739 174,0 Z M 1358,739 L 309,1346 659,739 1358,739 Z"/>
  </g>
  <g id="bullet-char-template-10132" transform="scale(0.00048828125,-0.00048828125)">
   <path d="M 2015,739 L 1276,0 717,0 1260,543 174,543 174,936 1260,936 717,1481 1274,1481 2015,739 Z"/>
  </g>
  <g id="bullet-char-template-10007" transform="scale(0.00048828125,-0.00048828125)">
   <path d="M 0,-2 C -7,14 -16,27 -25,37 L 356,567 C 262,823 215,952 215,954 215,979 228,992 255,992 264,992 276,990 289,987 310,991 331,999 354,1012 L 381,999 492,748 772,1049 836,1024 860,1049 C 881,1039 901,1025 922,1006 886,937 835,863 770,784 769,783 710,716 594,584 L 774,223 C 774,196 753,168 711,139 L 727,119 C 717,90 699,76 672,76 641,76 570,178 457,381 L 164,-76 C 142,-110 111,-127 72,-127 30,-127 9,-110 8,-76 1,-67 -2,-52 -2,-32 -2,-23 -1,-13 0,-2 Z"/>
  </g>
  <g id="bullet-char-template-10004" transform="scale(0.00048828125,-0.00048828125)">
   <path d="M 285,-33 C 182,-33 111,30 74,156 52,228 41,333 41,471 41,549 55,616 82,672 116,743 169,778 240,778 293,778 328,747 346,684 L 369,508 C 377,444 397,411 428,410 L 1163,1116 C 1174,1127 1196,1133 1229,1133 1271,1133 1292,1118 1292,1087 L 1292,965 C 1292,929 1282,901 1262,881 L 442,47 C 390,-6 338,-33 285,-33 Z"/>
  </g>
  <g id="bullet-char-template-9679" transform="scale(0.00048828125,-0.00048828125)">
   <path d="M 813,0 C 632,0 489,54 383,161 276,268 223,411 223,592 223,773 276,916 383,1023 489,1130 632,1184 813,1184 992,1184 1136,1130 1245,1023 1353,916 1407,772 1407,592 1407,412 1353,268 1245,161 1136,54 992,0 813,0 Z"/>
  </g>
  <g id="bullet-char-template-8226" transform="scale(0.00048828125,-0.00048828125)">
   <path d="M 346,457 C 273,457 209,483 155,535 101,586 74,649 74,723 74,796 101,859 155,911 209,963 273,989 346,989 419,989 480,963 531,910 582,859 608,796 608,723 608,648 583,586 532,535 482,483 420,457 346,457 Z"/>
  </g>
  <g id="bullet-char-template-8211" transform="scale(0.00048828125,-0.00048828125)">
   <path d="M -4,459 L 1135,459 1135,606 -4,606 -4,459 Z"/>
  </g>
  <g id="bullet-char-template-61548" transform="scale(0.00048828125,-0.00048828125)">
   <path d="M 173,740 C 173,903 231,1043 346,1159 462,1274 601,1332 765,1332 928,1332 1067,1274 1183,1159 1299,1043 1357,903 1357,740 1357,577 1299,437 1183,322 1067,206 928,148 765,148 601,148 462,206 346,322 231,437 173,577 173,740 Z"/>
  </g>
 </defs>
 <g>
  <g id="id2" class="Master_Slide">
   <g id="bg-id2" class="Background"/>
   <g id="bo-id2" class="BackgroundObjects"/>
  </g>
 </g>
 <g class="SlideGroup">
  <g>
   <g id="container-id1">
    <g id="id1" class="Slide" clip-path="url(#presentation_clip_path)">
     <g class="Page">
      <g class="Graphic">
       <g id="id3">
        <rect class="BoundingBox" stroke="none" fill="none" x="0" y="0" width="12700" height="13547"/>
        <defs>
         <clipPath id="clip_path_1" clipPathUnits="userSpaceOnUse">
          <path d="M 0,0 L 12699,0 12699,13546 0,13546 0,0 Z"/>
         </clipPath>
        </defs>
        <g clip-path="url(#clip_path_1)">
         <path fill="rgb(0,0,0)" fill-opacity="1" stroke="rgb(255,255,255)" stroke-opacity="0.4" d="M 6773,2328 L 6773,11218 C 6773,11785 6087,12064 5688,11668 L 3333,9314 635,9314 635,9314 C 635,9314 635,9314 635,9314 523,9314 414,9285 317,9229 221,9173 141,9093 85,8997 29,8900 0,8791 0,8679 0,8679 0,8678 0,8678 L 0,4868 0,4868 C 0,4757 29,4647 85,4551 141,4454 221,4374 317,4318 414,4262 523,4233 635,4233 L 3335,4233 5690,1880 C 6085,1482 6773,1761 6773,2328 L 6773,2328 Z"/>
         <path fill="rgb(0,0,0)" stroke="none" d="M 8948,4739 C 8854,4688 8749,4660 8642,4660 8530,4660 8421,4690 8324,4746 8228,4801 8148,4881 8092,4978 8036,5075 8007,5184 8007,5296 8007,5407 8036,5517 8092,5613 8148,5710 8228,5790 8324,5846 8328,5848 8332,5850 8336,5852 8346,5858 8357,5864 8368,5870 8526,5961 8658,6093 8749,6252 8841,6410 8889,6590 8889,6773 8889,6956 8841,7136 8749,7294 8658,7453 8526,7585 8368,7676 8357,7682 8346,7688 8336,7694 8332,7696 8328,7698 8324,7700 8228,7756 8148,7836 8092,7933 8036,8029 8007,8139 8007,8250 8007,8362 8036,8471 8092,8568 8148,8665 8228,8745 8324,8800 8421,8856 8530,8886 8642,8886 8749,8886 8854,8858 8948,8807 8967,8797 8985,8787 9003,8776 9354,8573 9646,8281 9849,7930 10052,7578 10159,7179 10159,6773 10159,6367 10052,5968 9849,5616 9646,5265 9354,4973 9003,4770 8985,4759 8967,4749 8948,4739 Z M 10406,2625 C 10310,2569 10201,2540 10090,2540 9979,2540 9870,2569 9773,2625 9684,2676 9608,2749 9554,2837 9549,2844 9545,2851 9541,2858 9485,2955 9455,3066 9455,3179 9455,3292 9485,3403 9541,3500 9592,3589 9664,3664 9750,3719 10243,4032 10653,4459 10945,4965 11262,5515 11429,6138 11429,6773 11429,7408 11262,8031 10945,8581 10653,9087 10243,9514 9750,9827 9664,9882 9592,9957 9541,10046 9484,10143 9455,10254 9455,10367 9455,10480 9484,10590 9541,10688 9545,10695 9549,10702 9554,10709 9608,10797 9684,10869 9773,10921 9869,10976 9979,11006 10090,11006 10201,11006 10310,10976 10407,10921 10414,10916 10422,10912 10430,10907 11095,10483 11648,9906 12043,9223 12473,8478 12699,7633 12699,6773 12699,5913 12473,5068 12043,4323 11648,3640 11095,3063 10430,2639 10422,2634 10414,2629 10406,2625 Z"/>
        </g>
       </g>
      </g>
     </g>
    </g>
   </g>
  </g>
 </g>
</svg>